<svg width="107" height="21" viewBox="0 0 107 21" fill="none" xmlns="http://www.w3.org/2000/svg">
<path d="M53.3376 21V0H62.4551C64.0568 0 65.4018 0.215332 66.4902 0.645997C67.5854 1.07666 68.4102 1.68506 68.9646 2.47119C69.5259 3.25732 69.8066 4.18359 69.8066 5.25C69.8066 6.02246 69.6354 6.72656 69.2932 7.3623C68.9578 7.99805 68.4855 8.53125 67.8763 8.96191C67.2671 9.38574 66.5552 9.67969 65.7407 9.84375V10.0488C66.6442 10.083 67.4656 10.312 68.2049 10.7358C68.9441 11.1528 69.5328 11.7305 69.9708 12.4688C70.4089 13.2002 70.628 14.0615 70.628 15.0527C70.628 16.2012 70.3268 17.2231 69.7244 18.1187C69.1289 19.0142 68.2801 19.7183 67.1781 20.231C66.0761 20.7437 64.7618 21 63.2354 21H53.3376ZM59.0463 16.4473H61.7158C62.6741 16.4473 63.3929 16.2695 63.872 15.9141C64.3511 15.5518 64.5907 15.0186 64.5907 14.3145C64.5907 13.8223 64.4778 13.4053 64.2519 13.0635C64.026 12.7217 63.7043 12.4619 63.2868 12.2842C62.8761 12.1064 62.3798 12.0176 61.798 12.0176H59.0463V16.4473ZM59.0463 8.49023H61.3873C61.887 8.49023 62.3285 8.41162 62.7118 8.2544C63.0951 8.09717 63.3929 7.87158 63.6051 7.57764C63.8241 7.27686 63.9336 6.91113 63.9336 6.48047C63.9336 5.83105 63.7009 5.33545 63.2354 4.99365C62.77 4.64502 62.1813 4.4707 61.4694 4.4707H59.0463V8.49023Z" fill="white"/>
<path d="M71.724 21V0H86.8787V4.59375H77.4327V8.20312H86.0984V12.7969H77.4327V16.4062H86.8376V21H71.724Z" fill="white"/>
<path d="M88.3864 4.59375V0H106.662V4.59375H100.338V21H94.7111V4.59375H88.3864Z" fill="white"/>
<path d="M18.4306 0V21H13.6929L6.13717 9.9668H6.01465V21H0.337631V0H5.15697L12.5902 10.9922H12.7536V0H18.4306Z" fill="white"/>
<path fill-rule="evenodd" clip-rule="evenodd" d="M17.3376 10.5C17.3376 4.70101 22.0386 0 27.8376 0H43.8376C49.6366 0 54.3376 4.70101 54.3376 10.5C54.3376 16.299 49.6366 21 43.8376 21H27.8376C22.0386 21 17.3376 16.299 17.3376 10.5ZM24.8358 8C25.8154 5.65105 28.1337 4 30.8376 4H40.8376C44.4275 4 47.3376 6.91015 47.3376 10.5C47.3376 14.0899 44.4275 17 40.8376 17H30.8376C27.764 17 25.1887 14.8667 24.5116 12H36.3376V8H24.8358Z" fill="white"/>
<path d="M46.8941 8C46.3884 8 45.8942 8.14993 45.4738 8.43084C45.0534 8.71174 44.7257 9.111 44.5322 9.57812C44.3387 10.0452 44.2881 10.5593 44.3868 11.0552C44.4854 11.5511 44.7289 12.0066 45.0864 12.3641C45.4439 12.7216 45.8994 12.9651 46.3953 13.0637C46.8912 13.1624 47.4052 13.1117 47.8724 12.9183C48.3395 12.7248 48.7387 12.3971 49.0197 11.9767C49.3006 11.5563 49.4505 11.062 49.4505 10.5564C49.4505 9.87842 49.1811 9.22818 48.7017 8.74876C48.2223 8.26934 47.5721 8 46.8941 8Z" fill="#00FFF0"/>
</svg>
